<mxfile host="Electron" agent="Mozilla/5.0 (Windows NT 10.0; Win64; x64) AppleWebKit/537.36 (KHTML, like Gecko) draw.io/27.0.9 Chrome/134.0.6998.205 Electron/35.4.0 Safari/537.36" version="27.0.9">
  <diagram name="Sida-1" id="t9KWanAmZFUYflOlihMm">
    <mxGraphModel dx="1186" dy="542" grid="0" gridSize="10" guides="1" tooltips="1" connect="1" arrows="1" fold="1" page="0" pageScale="1" pageWidth="827" pageHeight="1169" math="0" shadow="0">
      <root>
        <mxCell id="0" />
        <mxCell id="1" parent="0" />
        <mxCell id="rYKpvPcKb7zvsIVrGrCI-1" value="&lt;h1 style=&quot;margin-top: 0px;&quot;&gt;T.ex NLA-artikeln&lt;/h1&gt;&lt;p&gt;- Måste börja med en Vision. Vad är det vi skall göra. Roslagsvatten o ngt som står i mailtråden kring förbättring av ngnting vad det nu var.&lt;/p&gt;&lt;p&gt;- Där ngnstans börjar då da Mechanics. Utifrån designsituationen vi har så långt så finns i princip bara Boards, Helpers, Rules. När man tittar igenom dessa&amp;nbsp;&lt;/p&gt;" style="text;html=1;whiteSpace=wrap;overflow=hidden;rounded=0;" parent="1" vertex="1">
          <mxGeometry x="-115" y="31" width="553" height="120" as="geometry" />
        </mxCell>
      </root>
    </mxGraphModel>
  </diagram>
</mxfile>
